<?xml version="1.0" encoding="UTF-8"?>
<svg id="_圖層_2" data-name="圖層 2" xmlns="http://www.w3.org/2000/svg" viewBox="0 0 850.68 319.67">
  <defs>
    <style>
      .cls-1 {
        fill-rule: evenodd;
      }

      .cls-1, .cls-2 {
        fill: #0c4e93;
      }

      .cls-3 {
        isolation: isolate;
      }
    </style>
  </defs>
  <g id="Layer_1" data-name="Layer 1">
    <g>
      <path class="cls-1" d="M35.53,54.88c12.15-10.75,26.62-19.62,42.85-19.62,43.29,0,78.38,33.66,78.38,76.73s-35.1,78-78.38,78S0,155.07,0,111.99V0h35.53v54.88h0ZM78.38,156.05c24.45,0,44.27-19.72,44.27-44.05s-19.82-44.05-44.27-44.05-44.27,19.72-44.27,44.05,19.82,44.05,44.27,44.05h0Z"/>
      <path class="cls-1" d="M219.28,111.99c0-42.98,35.02-77.84,78.22-77.84s78.22,34.85,78.22,77.84-35.02,77.83-78.22,77.83-78.22-34.84-78.22-77.83h0ZM297.5,156.05c24.45,0,44.27-19.72,44.27-44.05s-19.82-44.05-44.27-44.05-44.27,19.72-44.27,44.05,19.82,44.05,44.27,44.05h0Z"/>
      <path class="cls-1" d="M155.18,111.99c0-51.92,30.15-77.84,78.22-77.84h3.35v34.08l-3.35-.3c-28.32,0-42.48,19.72-42.48,44.05v76.01h-35.78l.04-76.01h0Z"/>
      <path class="cls-1" d="M519.22,49.51c10.87-8.2,19.61-15.23,33.18-15.23,33.88,0,61.34,30.17,61.34,67.38l.05,86.54h-33.91v-86.56c0-18.44-13.61-33.4-30.4-33.4s-30.26,14.95-30.26,33.4v86.56h-37.41v-11.49c-9.79,8.28-22.53,13.15-37.89,13.15-39.1,0-68.53-31.54-68.53-70.44V.39h38.38v36.71h58.13v33.38h-58.13v52.29c0,18.97,14.47,34.35,33.54,34.35s34.51-15.38,34.51-34.35V1.88h37.4v47.65h0v-.02Z"/>
      <path class="cls-1" d="M647.85,125.36c3.55,20.79,21.74,36.62,43.64,36.62,18.5,0,34.35-11.29,40.97-27.33l34.38-.04c-9.7,32.29-39.56,56.36-74.89,56.36-43.19,0-78.21-35.99-78.21-78.98s35.02-77.84,78.21-77.84,78.22,34.85,78.22,77.84c0,4.53-.39,8.99-1.14,13.34l-121.17.03h0ZM733.56,95.28c-5.8-17.6-22.44-30.31-42.07-30.31s-36.27,12.71-42.08,30.32h84.15Z"/>
      <path class="cls-1" d="M769.12,111.99c0-51.92,30.14-77.84,78.21-77.84h3.35v34.08l-3.35-.3c-28.32,0-42.48,19.72-42.48,44.05v76.01h-35.77l.04-76.01h0Z"/>
      <g class="cls-3">
        <g class="cls-3">
          <path class="cls-2" d="M184.65,293.99l-.81-8.02h-.35c-2.67,4.3-8.83,9.29-17.78,9.29-11.15,0-16.38-7.9-16.38-15.34,0-12.9,11.39-20.68,34.04-20.45v-1.39c0-5.58-1.05-16.61-14.29-16.5-4.88,0-9.99,1.28-13.94,4.18l-1.74-4.07c5-3.37,11.27-4.76,16.27-4.76,16.15,0,19.17,12.08,19.17,22.07v21.73c0,4.41.23,8.95.81,13.24h-5ZM183.37,264.13c-12.2-.35-28.23,1.51-28.23,14.87,0,8.02,5.34,11.62,11.15,11.62,9.29,0,14.52-5.69,16.5-11.15.35-1.16.58-2.32.58-3.37v-11.97Z"/>
        </g>
        <g class="cls-3">
          <path class="cls-2" d="M216.83,222.07v16.15h15.92v4.42h-15.92v36.25c0,7.09,2.21,11.62,8.13,11.62,2.9,0,5-.46,6.39-.93l.7,4.3c-1.86.7-4.42,1.28-7.78,1.28-4.07,0-7.44-1.28-9.53-3.95-2.56-2.9-3.49-7.55-3.49-13.25v-35.32h-9.41v-4.42h9.41v-14.41l5.58-1.74Z"/>
        </g>
        <g class="cls-3">
          <path class="cls-2" d="M268.87,238.22l14.64,36.48c1.51,3.95,3.02,8.37,4.07,11.97h.23c1.16-3.49,2.56-7.78,4.3-12.32l13.59-36.13h5.93l-16.73,41.59c-6.74,17.31-11.5,27.65-18.82,34.04-4.41,3.72-8.36,5.34-9.76,5.81l-1.74-4.65c2.79-1.04,6.51-3.02,9.76-6.27,2.79-2.67,6.51-7.32,9.29-13.94.46-1.28.7-1.86.7-2.44s-.23-1.28-.7-2.44l-20.68-51.7h5.93Z"/>
        </g>
        <g class="cls-3">
          <path class="cls-2" d="M371.69,265.53c0,20.91-14.29,29.74-26.72,29.74-14.41,0-25.56-11.27-25.56-28.7,0-19.17,12.55-29.63,26.37-29.63,15.45,0,25.91,11.5,25.91,28.58ZM324.99,266.22c0,13.94,8.95,24.4,20.33,24.4s20.8-10.46,20.8-24.75c0-10.22-5.81-24.4-20.45-24.4s-20.68,12.78-20.68,24.75Z"/>
          <path class="cls-2" d="M428.74,280.4c0,4.88.23,9.29.46,13.59h-5.11l-.35-9.88h-.23c-2.79,5.11-9.18,11.15-19.17,11.15-7.09,0-18.94-3.49-18.94-24.63v-32.41h5.46v31.37c0,12.08,3.83,20.8,14.87,20.8,8.13,0,14.06-5.69,16.38-11.27.58-1.74,1.16-3.95,1.16-6.16v-34.74h5.46v42.17Z"/>
          <path class="cls-2" d="M447.56,254.95c0-5.58-.23-11.38-.46-16.73h5.11l.23,11.27h.23c2.44-6.97,8.25-12.55,15.92-12.55.7,0,1.51.12,2.21.23v5.34c-.81-.23-1.63-.23-2.67-.23-7.67,0-13.13,6.62-14.64,15.57-.23,1.63-.46,3.49-.46,5.34v30.79h-5.46v-39.04Z"/>
          <path class="cls-2" d="M504.95,286.67c3.02,1.86,7.55,3.83,12.55,3.83,8.83,0,13.01-4.76,13.01-10.57,0-6.16-3.72-9.41-11.73-12.66-9.18-3.49-14.17-8.48-14.17-15.22,0-8.02,6.27-15.1,17.19-15.1,5.11,0,9.41,1.51,12.32,3.49l-2.21,4.53c-1.86-1.39-5.46-3.37-11.04-3.37-7.09,0-10.81,4.53-10.81,9.64,0,5.81,3.95,8.36,11.5,11.5,9.06,3.49,14.41,8.02,14.41,16.5,0,9.53-7.44,15.92-18.82,15.92-5.46,0-10.46-1.51-14.17-3.83l1.98-4.65Z"/>
          <path class="cls-2" d="M557.81,222.31c0,2.56-1.74,4.76-4.65,4.76-2.56,0-4.3-2.21-4.3-4.76s1.98-4.88,4.53-4.88,4.42,2.21,4.42,4.88ZM550.61,293.99v-55.77h5.46v55.77h-5.46Z"/>
          <path class="cls-2" d="M619.27,211.5v69.48c0,4.18.23,9.06.46,13.01h-5l-.35-10.57h-.23c-2.9,6.16-9.53,11.85-19.87,11.85-13.71,0-24.05-11.5-24.05-28.12-.12-18.59,11.39-30.21,25.1-30.21,9.64,0,15.68,5,18.24,9.76h.23v-35.2h5.46ZM613.81,260.3c0-1.51-.23-3.6-.58-5.11-1.98-7.44-8.48-13.71-17.54-13.71-12.2,0-19.87,10.57-19.87,25.09,0,12.55,6.27,24.05,19.52,24.05,8.02,0,15.45-5.23,17.89-14.52.35-1.51.58-2.9.58-4.65v-11.15Z"/>
          <path class="cls-2" d="M638.9,265.53c0,17.89,9.76,24.86,21.26,24.86,8.13,0,12.31-1.63,15.45-3.14l1.39,4.42c-2.09,1.16-7.78,3.49-17.54,3.49-16.03,0-26.02-11.62-26.02-28,0-18.59,10.69-30.21,25.09-30.21,18.24,0,21.73,17.2,21.73,25.21,0,1.51,0,2.44-.23,3.37h-41.13ZM674.45,261.11c.12-7.78-3.14-19.63-16.61-19.63-12.32,0-17.66,11.04-18.59,19.63h35.2Z"/>
        </g>
      </g>
    </g>
  </g>
</svg>