<?xml version="1.0" encoding="UTF-8"?>
<svg id="_圖層_1" data-name="圖層 1" xmlns="http://www.w3.org/2000/svg" viewBox="0 0 400.23 109.72">
  <defs>
    <style>
      .cls-1 {
        fill: #eb1313;
      }
    </style>
  </defs>
  <g>
    <path class="cls-1" d="M25.5,93.3c.67-.76-1.64-2.62-.31-4.14.7-.8,1.95-.81,2.95.07.81.71.98,1.52.96,1.87l-1.34.2c0-.25,0-.79-.51-1.24-.34-.3-.71-.28-.92-.04-.68.78,1.64,2.61.29,4.15-.63.72-1.85.9-3.07-.18-.93-.82-1.14-1.74-1.15-2.07l1.36-.34c.03.39.12,1.13.7,1.64.42.37.81.33,1.03.08Z"/>
    <path class="cls-1" d="M30.86,98.87c-.52.04-1.07-.04-1.88-.61-1.34-.93-1.5-2.16-.48-3.63.96-1.38,2.29-1.66,3.52-.81,1.08.76,1.23,1.88.51,2.91-.15.22-.31.42-.58.72l-2.53-1.77c-.45.68-.41,1.26.31,1.76.46.32.93.32,1.2.27l-.07,1.15ZM29.96,94.96l1.49,1.04.08-.11c.35-.5.32-.91-.14-1.23-.51-.36-1.07-.19-1.43.3Z"/>
    <path class="cls-1" d="M37.16,99.02l-2.33,2.7-1.41-.73,1.17-5.22,1.23.63-.61,2.38c-.14.54-.27.96-.5,1.56l.03.02c.32-.5.67-.94.99-1.3l1.67-1.84,1.17.61-.59,2.36c-.13.54-.26,1.07-.5,1.59l.03.02c.32-.48.65-.88,1.04-1.33l1.56-1.84,1.09.56-3.56,3.99-1.43-.74.98-3.4-.03-.02Z"/>
    <path class="cls-1" d="M42.6,99.63l1.29.5-1.85,4.84-1.29-.5,1.85-4.84ZM44,97.84c.44.17.64.62.47,1.06-.15.4-.6.6-1.04.44-.41-.16-.61-.61-.46-1.01.17-.45.62-.65,1.03-.49Z"/>
    <path class="cls-1" d="M48.6,107l-1.33-.37.89-3.17c.14-.51-.01-.88-.46-1.01-.39-.11-.77.03-1.02.35l-.95,3.39-1.33-.37,1.4-4.99,1.04.29.13.54h.04c.4-.27.99-.35,1.51-.2.97.27,1.37.97,1.06,2.09l-.97,3.45Z"/>
    <path class="cls-1" d="M55.23,107.96c-.22,1.39-1.31,1.93-2.67,1.71-1.26-.2-1.71-.63-1.94-1.02l.93-.88c.2.39.66.72,1.19.8.7.11,1.04-.1,1.16-.83l.04-.26h-.04c-.22.14-.59.2-1.05.12-1.06-.17-1.92-.84-1.63-2.68.23-1.44,1.23-2.48,2.9-2.21.89.14,1.43.34,1.85.61l-.73,4.65ZM53.93,103.78c-.71-.11-1.2.32-1.35,1.3-.17,1.05.15,1.37.76,1.47.3.05.56,0,.76-.15l.38-2.44c-.18-.09-.33-.14-.55-.18Z"/>
    <path class="cls-1" d="M67.92,101.83l2.54,6.22-1.46.14-.54-1.43-2.14.2-.27,1.51-1.4.13,1.33-6.58,1.94-.18ZM66.54,105.77l1.5-.14-.33-.87c-.33-.86-.5-1.32-.66-1.87h-.04c-.06.56-.15,1.1-.3,1.93l-.18.96Z"/>
    <path class="cls-1" d="M74.8,103.22c-.19,0-.41.04-.59.07-.42.09-.86.34-1.1.65l.7,3.44-1.35.27-1.03-5.08,1.06-.22.43.69h.04c.11-.54.47-.99,1.14-1.13.14-.03.32-.05.44-.04l.27,1.34Z"/>
    <path class="cls-1" d="M77.21,104.86l-.67-2.37-.63.18-.23-.83.57-.45.13-1.3.84-.24.36,1.25,1.24-.35.29,1.01-1.24.35.68,2.41c.1.34.34.47.67.37.21-.06.46-.21.62-.41l.63.9c-.13.17-.47.47-1.29.7-.85.24-1.59-.01-1.93-1.22Z"/>
    <path class="cls-1" d="M87.19,95.69l2.55,4.61,2.07-1.15.56,1.01-3.29,1.83-3.11-5.62,1.22-.68Z"/>
    <path class="cls-1" d="M90.25,92.76c.39-.26.87-.16,1.13.24.24.36.14.84-.25,1.1-.37.24-.85.14-1.09-.21-.26-.4-.16-.88.2-1.12ZM90.89,94.94l1.15-.76,2.85,4.32-1.15.76-2.85-4.32Z"/>
    <path class="cls-1" d="M95.49,90.63c-.2.09-.39.19-.53.29-.3.24-.3.47-.08.75l.2.26.89-.69.58.75-.91.71,2.58,3.34-1.09.85-2.58-3.34-.6.47-.58-.75.62-.48-.22-.29c-.53-.68-.54-1.63.47-2.42.3-.23.51-.35.72-.44l.53,1Z"/>
    <path class="cls-1" d="M103.18,91.03c-.07.52-.27,1.04-.99,1.72-1.19,1.12-2.42,1.02-3.64-.29-1.15-1.22-1.15-2.59-.06-3.62.96-.9,2.09-.82,2.95.11.18.19.35.39.59.72l-2.25,2.12c.57.58,1.14.66,1.79.06.41-.38.51-.84.51-1.12l1.11.3ZM99.17,91.1l1.33-1.25-.09-.1c-.41-.44-.82-.5-1.23-.12-.45.43-.41,1.01,0,1.47Z"/>
  </g>
  <g>
    <path class="cls-1" d="M337.19,67.8c0,.25.12.37.37.37h15.38c.75,0,1.39.27,1.93.82.54.54.82,1.19.82,1.94v.05c0,.75-.27,1.39-.82,1.94-.54.54-1.19.82-1.93.82h-37.42c-.75,0-1.39-.27-1.93-.82-.54-.55-.82-1.19-.82-1.94v-.05c0-.75.27-1.39.82-1.94.54-.54,1.19-.82,1.93-.82h15.33c.25,0,.37-.12.37-.37v-8.87c0-.25-.12-.37-.37-.37h-9.83c-.75,0-1.39-.27-1.93-.82-.54-.54-.82-1.19-.82-1.94s.27-1.39.82-1.94c.54-.54,1.19-.82,1.93-.82h9.83c.25,0,.37-.12.37-.37v-7.66c0-.25-.12-.37-.37-.37h-9.13c-.25,0-.44.11-.56.33-.9,1.68-1.77,3.14-2.61,4.39-.44.62-1.04.98-1.82,1.07-.16.03-.3.05-.42.05-.62,0-1.18-.17-1.68-.51-.16-.12-.31-.25-.47-.37-.59-.37-.95-.92-1.07-1.63-.03-.16-.05-.31-.05-.47,0-.5.15-.98.47-1.45,1.15-1.56,2.22-3.36,3.22-5.42,1.09-2.24,2-4.54,2.75-6.91.22-.75.67-1.32,1.35-1.73.43-.28.92-.42,1.44-.42.22,0,.44.03.65.09l.47.09c.74.16,1.3.56,1.68,1.21.25.41.37.81.37,1.21,0,.28-.05.54-.14.79-.37,1.12-.81,2.38-1.3,3.78-.03.09-.02.17.02.23.05.06.12.09.21.09h6.66c.22,0,.33-.11.33-.33v-5.51c0-.75.27-1.39.82-1.94.54-.54,1.19-.82,1.93-.82h.47c.75,0,1.39.27,1.93.82.54.54.82,1.19.82,1.94v5.51c0,.22.12.33.37.33h12.95c.75,0,1.39.27,1.93.82.54.55.82,1.19.82,1.94v.05c0,.75-.27,1.39-.82,1.94-.54.54-1.19.82-1.93.82h-12.95c-.25,0-.37.12-.37.37v7.66c0,.25.12.37.37.37h11.14c.75,0,1.39.27,1.93.82s.82,1.19.82,1.94-.27,1.39-.82,1.94c-.54.55-1.19.82-1.93.82h-11.14c-.25,0-.37.12-.37.37v8.87Z"/>
    <g>
      <path class="cls-1" d="M225.58,57.39c-.12-.03-.23-.05-.33-.05-.44,0-.82.14-1.16.42-.47.34-.73.81-.79,1.4-.34,2.83-.81,5.17-1.4,7-.09.25-.14.5-.14.75,0,.28.06.58.19.89.25.53.62.92,1.12,1.17.28.12.57.19.88.19.22,0,.45-.03.7-.09.53-.19.89-.54,1.07-1.07.75-2.3,1.32-5.03,1.72-8.17v-.33c0-.47-.14-.89-.42-1.26-.37-.47-.85-.75-1.44-.84Z"/>
      <path class="cls-1" d="M264.53,68.22h-.09c-2.42.12-4.64.19-6.66.19-1.62,0-3.08-.05-4.38-.14-1.83-.09-3.39-.55-4.66-1.38-1.27-.82-2.27-1.98-2.98-3.48-.09-.22-.14-.45-.14-.7v-13.87c0-.9-.79-.84-.79-.84h-5.17c-.53,0-.99.19-1.37.58-.39.39-.58.86-.58,1.42,0,.03-.02.05-.05.05s-.05-.02-.05-.05c-.34-1.12-.7-2.16-1.07-3.13-.28-.75-.78-1.28-1.49-1.59-.4-.19-.81-.28-1.21-.28-.34,0-.67.06-.98.19l-.23.05c-.06.03-.11.02-.14-.02-.03-.05-.03-.1,0-.16,1.18-1.96,2.39-4.09,3.63-6.4.19-.34.28-.68.28-1.03,0-.25-.05-.5-.14-.75-.22-.59-.62-1.01-1.21-1.26-.31-.12-.61-.19-.88-.19-.31,0-.62.06-.93.19-.62.25-1.06.68-1.3,1.31-.65,1.49-1.43,3.1-2.33,4.81-.03.06-.09.09-.16.09s-.15-.03-.21-.09c-.25-.37-.61-.86-1.07-1.45-.16-.19-.19-.37-.09-.56.96-1.71,2.13-3.98,3.49-6.82.15-.31.23-.62.23-.93,0-.25-.06-.51-.19-.79-.22-.59-.62-1-1.21-1.21-.28-.12-.56-.19-.84-.19-.31,0-.62.08-.93.23-.59.28-.99.73-1.21,1.35-.72,1.93-1.46,3.73-2.24,5.42-.06.12-.14.14-.23.05-.25-.25-.56-.35-.93-.3-.37.05-.65.23-.84.54l-.42.79c-.28.47-.42.98-.42,1.54v.37c.09.68.36,1.29.79,1.82,1.52,1.74,2.72,3.32,3.59,4.72.12.19.12.39,0,.61-.71,1.18-1.32,2.13-1.82,2.85-.13.19-.29.3-.51.33h-.28c-.65.03-1.18.3-1.58.79-.37.4-.56.87-.56,1.4,0,.09.02.19.05.28.06.69.36,1.25.89,1.68.47.37.99.56,1.58.56h.23c.93-.09,1.94-.17,3.03-.23.25-.03.37.08.37.33v16.48c0,.65.22,1.21.68,1.66.45.45.99.68,1.63.68s1.18-.23,1.63-.68c.45-.45.68-1,.68-1.66v-16.85c0-.25.12-.37.37-.37l1.16-.09c.16-.03.25.03.28.19.06.47.29.82.68,1.05.39.23.82.27,1.28.12l.88-.33c.37-.15.67-.41.89-.77.22-.36.28-.74.19-1.14-.03-.09.01-.14.14-.14h2c.22,0,.33.11.33.33v9.62c0,.25-.08.45-.23.61-.93,1-2.03,2.09-3.31,3.27-.59.53-.96,1.18-1.12,1.96-.03.22-.05.42-.05.61,0,.59.14,1.14.42,1.63.34.59.84.93,1.49,1.03h.28c.56,0,1.03-.22,1.4-.65,1.27-1.4,2.39-2.71,3.35-3.92.16-.19.3-.19.42,0,2.17,3.46,5.34,5.29,9.51,5.51,1.46.06,3.04.09,4.75.09,1.61,0,3.34-.03,5.17-.09.75-.03,1.4-.29,1.96-.77.56-.48.95-1.1,1.17-1.84.06-.16.09-.33.09-.51,0-.37-.12-.72-.37-1.03-.34-.44-.78-.65-1.3-.65ZM232.94,49.64l-3.12.19c-.06,0-.11-.03-.14-.09-.03-.06-.03-.12,0-.19.75-1.15,1.44-2.26,2.1-3.31.03-.06.09-.09.16-.09s.13.03.16.09c.43,1.06.79,2.09,1.07,3.08.09.22.01.33-.23.33Z"/>
      <path class="cls-1" d="M237.97,64.4c.22-.34.33-.72.33-1.12,0-.16-.02-.31-.05-.47-.28-1.37-.65-2.79-1.12-4.25-.16-.5-.47-.87-.93-1.12-.31-.16-.62-.23-.93-.23-.19,0-.37.02-.56.05-.5.16-.88.46-1.14.91-.26.45-.32.93-.16,1.42.43,1.62.79,3.08,1.07,4.39.09.53.36.93.82,1.21.45.28.92.34,1.42.19.56-.16.98-.48,1.26-.98Z"/>
      <path class="cls-1" d="M253.4,60.33h-4.57c-.53,0-.98.19-1.35.56-.37.37-.56.82-.56,1.35s.19.97.56,1.33c.37.36.82.54,1.35.54h4.57c.25,0,.37.12.37.37v.51c0,.62.23,1.17.68,1.63.45.47,1,.7,1.65.7s1.2-.23,1.65-.7c.45-.47.68-1.01.68-1.63v-.51c0-.25.12-.37.37-.37h4.85c.53,0,.98-.18,1.35-.54.37-.36.56-.8.56-1.33s-.19-.98-.56-1.35-.82-.56-1.35-.56h-4.85c-.25,0-.37-.11-.37-.33v-1.12c0-.25.12-.37.37-.37h3.5c.5,0,.92-.17,1.26-.51.34-.34.51-.75.51-1.24s-.17-.89-.51-1.24c-.34-.34-.76-.51-1.26-.51h-3.5c-.25,0-.37-.12-.37-.37v-.98c0-.22.12-.33.37-.33h3.78c.5,0,.92-.18,1.28-.54.36-.36.54-.79.54-1.28s-.18-.93-.54-1.28c-.36-.36-.78-.54-1.28-.54h-3.91c-.16,0-.23-.08-.23-.23,0-.53-.18-.97-.54-1.33-.36-.36-.8-.54-1.33-.54h-.93c-.53,0-.97.18-1.33.54-.36.36-.54.8-.54,1.33,0,.16-.08.23-.23.23h-3.96c-.5,0-.92.18-1.28.54-.36.36-.54.79-.54,1.28s.18.93.54,1.28c.36.36.78.54,1.28.54h3.82c.25,0,.37.11.37.33v.98c0,.25-.12.37-.37.37h-3.35c-.5,0-.92.17-1.26.51-.34.34-.51.76-.51,1.24s.17.9.51,1.24c.34.34.76.51,1.26.51h3.35c.25,0,.37.12.37.37v1.12c0,.22-.12.33-.37.33Z"/>
      <path class="cls-1" d="M268.75,42.98c-.25-.23-.92-.76-1.66-.67-2.02.25-3.7.28-5.24.1-.87-.14-1.66-.34-2.39-.62-.04-.02-.08-.04-.12-.06.75-.99,1.32-2.06,1.68-3.17.65-2,.58-4.03-.19-5.74-.4-.89-1.18-1.72-2.08-2.22-1.36-.76-2.91-.95-4.15-.53-1.28.44-2.28,1.42-2.97,2.9-.65,1.38-.94,2.63-.91,3.82.04,1.56.57,3.09,1.65,4.72-.1.05-.2.09-.29.14-.92.36-1.94.62-3.1.8-1.28.15-2.58.15-3.86.01-.58-.06-1.29.3-1.66.68-.43.43-.7,1.1-.68,1.65.03.68.27,1.26.68,1.64.43.4.91.6,1.61.67.65.07,1.31.11,1.97.11,1.74,0,3.5-.24,5.19-.72,1.21-.34,2.37-.85,3.46-1.52.09.06.19.13.29.19,2.41,1.56,5.64,2.21,9.6,1.93.49-.04,1-.08,1.56-.15.52-.06,1.11-.17,1.62-.68.43-.43.7-1.1.68-1.65-.03-.68-.27-1.26-.69-1.64ZM256.07,34.51s.01,0,.02,0c.09.02.17.04.26.07.06.03.13.07.19.11.03.03.05.05.08.08.03.05.07.11.09.17.04.14.08.28.11.43.02.3.02.6-.01.92-.08.46-.21.92-.37,1.36-.14.29-.3.58-.5.88-.12-.2-.22-.4-.32-.6-.11-.3-.19-.6-.25-.89-.02-.25-.02-.49,0-.74.06-.33.16-.65.28-.99.14-.3.27-.55.42-.78Z"/>
      <path class="cls-1" d="M241.91,40.72c1.36-.06,2.52-1.11,2.52-2.52v-3.1c0-1.32-1.16-2.58-2.52-2.52-1.36.06-2.52,1.11-2.52,2.52v3.1c0,1.32,1.16,2.58,2.52,2.52Z"/>
    </g>
    <path class="cls-1" d="M167.4,56.53c-.06.06-.07.13-.02.19.05.06.1.1.17.1h8.7c.6,0,1.12.21,1.55.64.43.43.64.95.64,1.55s-.21,1.12-.64,1.55c-.43.43-.94.64-1.55.64h-40.09c-.6,0-1.12-.21-1.55-.64-.43-.43-.64-.94-.64-1.55s.21-1.12.64-1.55c.43-.43.94-.64,1.55-.64h8.65c.06,0,.12-.03.17-.1.05-.06.05-.13.02-.19-.06-.19-.13-.38-.19-.57-.19-.44-.18-.88.02-1.31.21-.43.53-.69.98-.79v-.05h-1.9c-.79,0-1.46-.28-2-.83-.54-.56-.81-1.21-.81-1.98v-4.05c0-.79.27-1.46.81-2,.54-.54,1.2-.81,2-.81h25.15c.76,0,1.42.27,1.97.81.55.54.83,1.21.83,2v4.43c0,.67-.24,1.24-.71,1.71-.48.48-1.05.72-1.71.72-.22,0-.38.08-.48.24-.48.83-1,1.65-1.57,2.48ZM152.75,38.52c.22,0,.33-.11.33-.33v-1.29c0-.25-.11-.38-.33-.38h-15.07c-.57,0-1.05-.2-1.45-.6-.4-.4-.59-.88-.59-1.45s.2-1.06.59-1.48c.4-.41.88-.62,1.45-.62h15.12c.19,0,.29-.11.29-.33,0-.7.25-1.3.76-1.81.51-.51,1.13-.76,1.85-.76h.71c.7,0,1.3.25,1.81.76.51.51.76,1.11.76,1.81,0,.22.11.33.33.33h15.55c.57,0,1.05.21,1.45.62.4.41.6.91.6,1.48s-.2,1.06-.6,1.45-.88.6-1.45.6h-15.5c-.25,0-.38.13-.38.38v1.29c0,.22.13.33.38.33h12.65c.54,0,1.01.2,1.4.6.4.4.59.87.59,1.41s-.2,1.01-.59,1.41c-.4.4-.86.59-1.4.59h-31.05c-.54,0-1-.2-1.38-.59-.38-.4-.57-.87-.57-1.41s.19-1.01.57-1.41c.38-.4.84-.6,1.38-.6h11.79ZM166.73,73.73h-25.72c-.95-.09-.91-1.48-.91-1.48v-6.43c0-.76.28-1.42.83-1.98.55-.56,1.21-.83,1.97-.83h27.15c.79,0,1.46.28,2,.83.54.56.81,1.21.81,1.98v6.39s.2,1.52-.9,1.52h-5.23ZM166.87,67.25c0-.25-.11-.38-.33-.38h-20.4c-.22,0-.33.13-.33.38v2.24c0,.25.11.38.33.38h20.4c.22,0,.33-.13.33-.38v-2.24ZM146.95,47.81c-.25,0-.38.11-.38.33v1.72c0,.25.13.38.38.38h18.69c.25,0,.38-.13.38-.38v-1.72c0-.22-.13-.33-.38-.33h-18.69ZM162.35,54.15c0-.1-.02-.17-.07-.24-.05-.06-.1-.09-.17-.09h-11.98c-.06,0-.12.03-.17.09-.05.06-.04.13.02.19.41.76.76,1.56,1.05,2.38.1.22.25.33.47.33h9.32c.25,0,.43-.11.52-.33.35-.73.68-1.51,1-2.33Z"/>
    <path class="cls-1" d="M364.94,47.24c.7.35,1.13.9,1.28,1.67.06.19.1.4.1.62,0,.51-.16.99-.48,1.43l-.09.14c-.41.64-1,1.03-1.76,1.19-.22.06-.44.1-.67.1-.51,0-1-.14-1.47-.43-1.14-.7-2.6-1.54-4.37-2.53-.63-.32-1.02-.83-1.14-1.52-.06-.19-.1-.36-.1-.52,0-.48.16-.92.48-1.33.44-.63,1.03-1.05,1.76-1.24.29-.06.55-.1.81-.1.48,0,.93.11,1.38.33,1.78.89,3.2,1.62,4.28,2.19ZM362.19,72.59c-.41.64-.98,1.02-1.71,1.14h-.43c-.57,0-1.08-.18-1.52-.52l-.52-.43c-.6-.51-.97-1.14-1.09-1.91-.03-.16-.05-.32-.05-.48,0-.6.17-1.18.52-1.72,2.25-3.37,4.37-6.89,6.37-10.58.35-.6.87-.97,1.57-1.1.13-.03.25-.05.38-.05.54,0,1.01.19,1.43.57l.09.1c.63.57,1.01,1.27,1.14,2.1.06.22.1.44.1.67,0,.57-.14,1.13-.43,1.67-1.97,3.75-3.92,7.26-5.85,10.53ZM367.32,34c.67.38,1.08.94,1.24,1.67.03.19.05.38.05.57,0,.51-.17,1-.52,1.48l-.14.14c-.44.64-1.05,1.02-1.81,1.14-.19.03-.38.05-.57.05-.57,0-1.11-.16-1.62-.48-1.01-.63-2.41-1.46-4.18-2.48-.63-.35-1.02-.87-1.14-1.57-.03-.16-.05-.32-.05-.48,0-.51.16-.97.48-1.38.48-.6,1.09-1,1.85-1.19.25-.03.49-.05.71-.05.51,0,1,.11,1.47.33,1.68.89,3.09,1.64,4.23,2.24ZM392.1,73.5h-18.24c-1.68,0-1.45-2.78-1.45-2.78v-12.13c0-.76.28-1.42.83-1.98.55-.56,1.21-.83,1.97-.83h6.8c.22,0,.33-.11.33-.33v-5.43c0-.25-.11-.38-.33-.38h-9.84c-.76,0-1.41-.27-1.95-.81-.54-.54-.81-1.19-.81-1.95s.27-1.41.81-1.95c.54-.54,1.19-.81,1.95-.81h9.84c.22,0,.33-.13.33-.38v-5c0-.22-.11-.32-.33-.29-1.93.29-4.12.56-6.56.81h-.29c-.6,0-1.16-.17-1.66-.52-.6-.44-1.03-1.03-1.28-1.76-.06-.22-.1-.46-.1-.71,0-.35.1-.7.29-1.05.32-.57.81-.89,1.47-.95,7.1-.83,12.92-1.95,17.45-3.38.48-.16.95-.24,1.43-.24.35,0,.7.05,1.05.14.86.19,1.57.59,2.14,1.19l.57.57c.35.35.52.75.52,1.19,0,.16-.02.32-.05.48-.16.64-.54,1.05-1.14,1.24-2.25.73-4.8,1.37-7.66,1.91-.22.03-.33.17-.33.43v5.96c0,.25.13.38.38.38h9.22c.76,0,1.41.27,1.95.81.54.54.81,1.19.81,1.95s-.27,1.41-.81,1.95c-.54.54-1.19.81-1.95.81h-9.22c-.25,0-.38.13-.38.38v5.43c0,.22.13.33.38.33h6.75c.76,0,1.42.28,1.97.83.55.56.83,1.21.83,1.98v13.91s-.14,1-1.07,1h-4.64ZM391.95,68.25c.22,0,.33-.13.33-.38v-6.48c0-.22-.11-.33-.33-.33h-13.93c-.25,0-.38.11-.38.33v6.48c0,.25.13.38.38.38h13.93Z"/>
    <path class="cls-1" d="M184.83,31c.32-.73.82-1.27,1.52-1.62.41-.22.84-.33,1.28-.33.29,0,.57.05.86.14l.1.05c.73.22,1.27.68,1.62,1.38.16.35.24.71.24,1.1,0,.32-.06.65-.19,1-.98,2.45-2.08,4.8-3.28,7.05-.13.22-.19.45-.19.67v30.49c0,.79-.27,1.46-.81,2-.54.54-1.21.81-2,.81h-.14c-.76,0-1.42-.27-1.97-.81-.56-.54-.83-1.21-.83-2v-21.44s-.02-.05-.07-.07c-.05-.02-.09,0-.12.02-.25.32-.51.65-.76,1-.35.41-.79.62-1.33.62h-.29c-.63-.09-1.11-.44-1.43-1.05-.16-.32-.33-.63-.52-.95-.32-.6-.48-1.24-.48-1.91,0-.16.02-.3.05-.43.06-.83.36-1.56.9-2.19,3.2-3.87,5.82-8.39,7.85-13.53ZM207.99,66.25c0,.25.11.38.33.38h9.99c.76,0,1.41.27,1.95.81.54.54.81,1.19.81,1.95s-.27,1.41-.81,1.95c-.54.54-1.19.81-1.95.81h-26.82c-.79,0-1.46-.27-2-.81-.54-.54-.81-1.19-.81-1.95s.27-1.41.81-1.95c.54-.54,1.2-.81,2-.81h10.22c.25,0,.38-.13.38-.38v-5.15c0-.22-.13-.33-.38-.33h-7.61c-.76,0-1.4-.27-1.93-.81-.52-.54-.78-1.19-.78-1.95s.26-1.41.78-1.95c.52-.54,1.16-.81,1.93-.81h7.61c.25,0,.38-.13.38-.38v-1.1c0-.79.27-1.46.81-2,.54-.54,1.2-.81,2-.81h.29c.76,0,1.42.27,1.97.81.55.54.83,1.21.83,2v1.1c0,.25.11.38.33.38h7.89c.76,0,1.41.27,1.95.81.54.54.81,1.19.81,1.95s-.27,1.41-.81,1.95c-.54.54-1.19.81-1.95.81h-7.89c-.22,0-.33.11-.33.33v5.15ZM201.71,44.05c.25,0,.38-.11.38-.33v-4.34c0-.25-.13-.38-.38-.38h-6.66c-.76,0-1.4-.26-1.93-.79-.52-.52-.78-1.16-.78-1.91s.26-1.39.78-1.93c.52-.54,1.17-.81,1.93-.81h6.66c.25,0,.38-.11.38-.33v-2.24c0-.79.27-1.46.81-2,.54-.54,1.2-.81,2-.81h.29c.76,0,1.42.27,1.97.81.55.54.83,1.21.83,2v2.24c0,.22.11.33.33.33h6.99c.73,0,1.36.27,1.9.81s.81,1.18.81,1.93-.27,1.38-.81,1.91c-.54.52-1.17.79-1.9.79h-6.99c-.22,0-.33.13-.33.38v4.34c0,.22.11.33.33.33h9.13c.76,0,1.41.27,1.95.81.54.54.81,1.19.81,1.95s-.27,1.41-.81,1.93c-.54.52-1.19.79-1.95.79h-24.63c-.73,0-1.36-.26-1.9-.79-.54-.52-.81-1.17-.81-1.93s.27-1.41.81-1.95c.54-.54,1.17-.81,1.9-.81h8.89Z"/>
    <g>
      <path class="cls-1" d="M285.15,50.02c-.34-1.12-.7-2.16-1.07-3.13-.28-.75-.78-1.28-1.49-1.59-.4-.19-.81-.28-1.21-.28-.34,0-.67.06-.98.19l-.23.05c-.06.03-.11.02-.14-.02-.03-.05-.03-.1,0-.16,1.18-1.96,2.39-4.09,3.63-6.4.19-.34.28-.68.28-1.03,0-.25-.05-.5-.14-.75-.22-.59-.62-1.01-1.21-1.26-.31-.12-.61-.19-.88-.19-.31,0-.62.06-.93.19-.62.25-1.06.68-1.3,1.31-.65,1.49-1.43,3.1-2.33,4.81-.03.06-.09.09-.16.09s-.15-.03-.21-.09c-.25-.37-.61-.86-1.07-1.45-.16-.19-.19-.37-.09-.56.96-1.71,2.13-3.98,3.49-6.82.16-.31.23-.62.23-.93,0-.25-.06-.51-.19-.79-.22-.59-.62-1-1.21-1.21-.28-.12-.56-.19-.84-.19-.31,0-.62.08-.93.23-.59.28-.99.73-1.21,1.35-.71,1.93-1.46,3.73-2.24,5.42-.06.12-.14.14-.23.05-.25-.25-.56-.35-.93-.3-.37.05-.65.23-.84.54l-.42.79c-.28.47-.42.98-.42,1.54v.37c.09.68.36,1.29.79,1.82,1.52,1.74,2.72,3.32,3.59,4.72.12.19.12.39,0,.61-.71,1.18-1.32,2.13-1.82,2.85-.12.19-.3.3-.51.33h-.28c-.65.03-1.18.3-1.58.79-.37.4-.56.87-.56,1.4,0,.09.01.19.05.28.06.69.36,1.25.88,1.68.47.37.99.56,1.58.56h.23c.93-.09,1.94-.17,3.03-.23.25-.03.37.08.37.33v16.48c0,.65.23,1.21.68,1.66.45.45.99.68,1.63.68s1.18-.23,1.63-.68c.45-.45.68-1,.68-1.66v-16.85c0-.25.12-.37.37-.37l1.17-.09c.16-.03.25.03.28.19.06.47.29.82.68,1.05.39.23.82.27,1.28.12l.89-.33c.37-.15.67-.41.89-.77.22-.36.28-.74.19-1.14l-.84-3.18ZM280.49,49.64l-3.12.19c-.06,0-.11-.03-.14-.09-.03-.06-.03-.12,0-.19.74-1.15,1.44-2.26,2.1-3.31.03-.06.09-.09.16-.09s.13.03.16.09c.44,1.06.79,2.09,1.07,3.08.09.22.02.33-.23.33Z"/>
      <path class="cls-1" d="M270.27,59.35c.09-.62.39-1.14.89-1.54.4-.28.84-.42,1.3-.42h.42c.65.12,1.18.45,1.58.98.31.44.47.92.47,1.45v.37c-.44,2.96-1.01,5.52-1.72,7.7-.19.59-.59,1-1.21,1.21-.25.09-.51.14-.79.14-.34,0-.67-.08-.98-.23-.59-.28-1.01-.72-1.26-1.31-.12-.34-.19-.68-.19-1.03,0-.28.03-.56.09-.84.59-1.77,1.06-3.94,1.4-6.49Z"/>
      <path class="cls-1" d="M281.64,59.82c-.09-.22-.14-.45-.14-.7,0-.28.08-.56.23-.84.25-.53.64-.87,1.17-1.03.25-.09.48-.14.7-.14.34,0,.67.08.98.23.53.25.9.65,1.12,1.21.62,1.59,1.15,3.1,1.59,4.53.06.22.09.44.09.65,0,.37-.09.73-.28,1.07-.28.56-.73.95-1.35,1.17-.22.09-.44.14-.65.14-.31,0-.62-.08-.93-.23-.53-.31-.87-.75-1.03-1.31-.37-1.4-.87-2.99-1.49-4.76Z"/>
      <path class="cls-1" d="M296.79,38.62h-6.24c-.71,0-1.34-.26-1.86-.77-.53-.51-.79-.77-.79-.77v-1.1c0-.73.26-1.35.79-1.87.53-.51,1.15-.77,1.86-.77h19.01c.75,0,1.38.26,1.91.79.5.53.75,1.15.75,1.87,0,8.19-.36,16.72-1.07,25.59-.37,4.83-.96,7.84-1.77,9.06-.56.81-1.11,1.4-1.65,1.77-.54.37-1.23.65-2.07.84-.72.15-1.66.23-2.84.23h-.05c-.74,0-1.4-.25-1.96-.75-.59-.53-.99-1.2-1.21-2.01-.03-.12-.06-.23-.09-.33-.06-.19-.09-.37-.09-.56,0-.4.12-.78.37-1.12.34-.5.82-.75,1.44-.75h1.58c.59,0,1.1-.31,1.54-.93.56-.81,1-3.26,1.33-7.35.33-4.09.63-11,.91-20.71,0-.25-.12-.37-.37-.37h-9.41Z"/>
      <path class="cls-1" d="M298.36,38.46c.16,4.09.18,8.61-1.49,12.42-.64,1.47-1.09,2.45-2.78,2.38-.86-.03-1.28-.38-1.38-1.23-.09-.76.03-1.9.76-2.34,1.25-.75,2.55.83,2.91,1.95.66,2.06-.04,5.01-.61,7.03-.61,2.18-1.74,4.05-3.27,5.7-1.24,1.34-2.79,2.11-4.43,2.85-1.1.5-1.35,2.08-.8,3.05.65,1.14,1.96,1.29,3.05.8,4.51-2.04,7.87-5.58,9.48-10.33,1.61-4.76,2.41-11.52-2.38-14.69-2.01-1.33-4.71-1.29-6.68.11-2.27,1.62-2.94,4.97-2.2,7.55.76,2.65,3.39,4.18,6.07,3.94,2.59-.22,4.27-1.21,5.57-3.46,2.69-4.66,2.86-10.53,2.65-15.76-.11-2.86-4.57-2.88-4.46,0h0Z"/>
    </g>
  </g>
  <g>
    <path class="cls-1" d="M61.08,104.51c-.79-.23-1.62.03-2.11.67-.02.02-.41.54-.41,1.1-.02.87.46,1.61,1.26,1.92.02,0,.03.01.05.02h.02c.06.04.49.24,1.18.02.67-.22,1.11-.67,1.31-1.34h0s0-.02,0-.02h0s.06-.33.06-.33h0c0-.05,0-.09,0-.13,0-.08,0-.17,0-.25-.08-.77-.64-1.45-1.36-1.66ZM60.28,107.71c-.35-.06-.66-.26-.87-.55-.21-.29-.29-.65-.23-1,.09-.51.46-.91.92-1.06.2-.06.41-.08.63-.04.73.13,1.22.82,1.1,1.55-.12.73-.82,1.23-1.55,1.1Z"/>
    <path class="cls-1" d="M60.67,105.43c-.25-.04-.51.01-.72.16-.21.15-.35.37-.39.62-.04.25.02.51.16.72.15.21.37.35.62.39.15.03.31.01.45-.03.33-.1.59-.39.66-.75.09-.52-.26-1.02-.78-1.11ZM60.85,106.17c.12-.04.25.03.29.15.04.12-.03.25-.15.29-.12.04-.25-.03-.29-.15-.04-.12.03-.25.15-.29ZM60.16,106.58c-.12.04-.25-.03-.29-.15s.03-.25.15-.29c.12-.04.25.03.29.15.04.12-.03.25-.15.29Z"/>
  </g>
  <g>
    <path class="cls-1" d="M84.06,100.27c-.82.04-1.52.56-1.77,1.32,0,.03-.2.65-.03,1.18.27.83.96,1.37,1.82,1.4.02,0,.03,0,.05,0h.02c.06,0,.53.06,1.12-.37.56-.43.83-1,.8-1.7,0,0,0,0,0,0,0,0,0,0,0-.01h0s-.05-.33-.05-.33h0s-.03-.09-.04-.12c-.03-.08-.06-.16-.09-.24-.32-.7-1.08-1.16-1.83-1.12ZM84.35,103.55c-.35.06-.71-.02-1-.23-.29-.21-.49-.52-.55-.87-.09-.51.13-1.01.52-1.3.17-.12.36-.21.58-.25.73-.12,1.42.37,1.55,1.11.12.73-.37,1.43-1.1,1.55Z"/>
    <path class="cls-1" d="M83.97,101.28c-.25.04-.47.18-.62.39-.15.21-.21.46-.17.72s.18.48.39.62c.21.15.46.21.72.16.15-.03.29-.09.41-.18.28-.21.43-.56.37-.93-.09-.52-.58-.87-1.1-.79ZM84.38,101.92c.1-.08.25-.06.33.05.08.1.06.25-.05.33-.1.08-.25.06-.32-.05-.08-.1-.06-.25.05-.33ZM83.87,102.53c-.1.08-.25.06-.33-.05-.08-.1-.06-.25.05-.33.1-.08.25-.06.33.05.08.1.06.25-.05.33Z"/>
  </g>
  <path class="cls-1" d="M68.82,16.92c-3.29,1.02-5.25,0-5.89-3.04-2.36-2.36-1.99-3.44,1.1-3.23-1.73,1.59-3.46,3.18-5.2,4.77-.79.05-1.57.05-2.36.01-2.68-.03-5.58-.38-8.2.44-2.97.93-5.32,2.93-5.19,6.2.02.59.93.59.91,0-.41-10.34,16.02-2.4,20.05-7.89,1.06-1.44,1.73-5.5-.65-6.2-3.16-.92-2.89,3.8-2.42,5.37,1.09,3.68,4.43,5.57,8.09,4.46.56-.17.32-1.05-.24-.88h0Z"/>
  <path class="cls-1" d="M81,18.67c.05,0,.11.02.16.03v-5.81c0-1.14-.87-2.07-1.94-2.07h-2.44c-1.07,0-1.94.93-1.94,2.07v5.9c3.14-.6,5.91-.16,6.15-.12Z"/>
  <path class="cls-1" d="M114.96,65.83c-2.07-.05-9.51-.29-11.57-.39l-1.28,7.89-.54,2.96-1.96.26-1.74.51c-9.1,2.24-9.51,2.38-11.15,2.91,9.14.24,17.55.13,28.44-.59-2.7-2.86-4.11-4.38-5.95-7.07q3.27-3.97,5.74-6.49Z"/>
  <path class="cls-1" d="M87.61,73.96c-.25,3.19-.16,2.23-.26,3.58,1.03-.1-.6,0,9.66-2.01-1.97-.44-5.26-1.09-9.4-1.57Z"/>
  <path class="cls-1" d="M85.83,73.55c-6.89-.67-15.72-.77-24.63,1.17-4.86,1.06-10.3,1-17.13-.2-4.69-.82-9.64-2.39-14.26-4.49-.44.74-.56,1.16-.73,1.71-.19.77-.22,1.96.07,4.24.77,3.16,2.3,3.99,5.64,3.99,16.79,0,33.22,0,50.01,0l1.03-6.42Z"/>
  <path class="cls-1" d="M19.71,63.72c-2.51-2.16-.95-.43-5.6-5.66l-1.01-1.18,1.01-1.3c.08-.16,2.75-4.47,7.19-7.99-5.2-2.31-5.87-2.74-9.11-5.22.54,7.07.6,6.39.68,9.26-4.45,0-7,.09-12.88-.46,0,0,10.65,11.2,19.71,12.55Z"/>
  <path class="cls-1" d="M16.95,41.04c1.54-10.55,7.29-20.42,15.22-27.43C40.24,6.48,50.7,2.33,61.45,1.97c10.39-.34,20.67,2.8,29.09,8.9,8.19,5.94,14.34,14.58,17.28,24.27,1.59,5.25,2.24,10.75,1.96,16.23-.08,1.51-.31,3.01-.48,4.51-.09.74-.18,1.49-.26,2.23-.02.19-.08.54,0,.11-.05.34-.11.67-.16,1.01-.19,1.09-.38,2.19-.71,3.24-.38,1.2,1.49,1.71,1.87.52.99-3.14,1.16-6.61,1.54-9.87.58-4.98.13-10.17-.96-15.05-2.29-10.25-7.99-19.65-15.97-26.44C86.47,4.7,76.17.6,65.48.06c-11.17-.56-22.41,2.81-31.39,9.5-9.02,6.72-15.59,16.46-18.31,27.4-.29,1.18-.53,2.36-.7,3.56-.18,1.22,1.69,1.75,1.87.52h0Z"/>
  <path class="cls-1" d="M27.63,44.79c-9.45,6.37-12.2,12.12-12.2,12.12,10.56,11.96,17.49,13.13,28.93,15.85,5.39,1.28,11.06,1.19,16.47.03,21.25-4.56,38.69,1.13,38.69,1.13l3.23-14.85c-6.7-7.46-25.3-5.92-37.45-3.94-8.53,1.39-17.21.45-25.08-2.64,0,.1,0,.21,0,.32.01.77.03,1.57-.09,2.41-.32,2.28-1.48,4.01-3.39,5.09,0,.84,0,.79-.01,1.64-.04,1.91-1.24,3.19-2.98,3.19h0c-1.73,0-2.93-1.29-2.97-3.2v-.15c-.02-.8-.04-.72,0-1.56-.82-.53-1.24-.92-1.89-1.73-.5-.61-.81-1.49-1-2.04-.06-.18-.13-.43-.19-.57l-.06-.43v-10.67M48.29,64.49c-.07.37-.37.62-.71.62-.05,0-.1,0-.14-.02-1.4-.3-2.84-.7-4.4-1.21-.38-.13-.6-.56-.48-.97.12-.41.53-.64.91-.51,1.51.5,2.9.88,4.25,1.17.39.09.65.49.57.92ZM56.5,65.77c-.74.04-1.47.06-2.16.06-.81,0-1.61-.03-2.39-.08-.4-.03-.71-.4-.68-.83.03-.43.37-.75.77-.72.75.05,1.5.08,2.29.08.67,0,1.37-.02,2.09-.06.4-.02.74.31.76.74.02.43-.29.79-.69.82ZM65.45,64.66c-1.74.29-3.16.5-4.45.67-.03,0-.06,0-.09,0-.36,0-.68-.29-.72-.68-.05-.43.23-.81.63-.87,1.27-.17,2.67-.38,4.4-.67.4-.07.77.22.83.65s-.21.82-.61.89ZM74.23,62.93l-.2.03c-1.25.21-2.49.48-3.7.75l-.45.1s-.1.02-.15.02c-.34,0-.64-.25-.71-.62-.08-.42.17-.83.57-.92l.45-.1c1.22-.26,2.48-.54,3.76-.76l.21-.03c.4-.06.77.23.83.65.06.42-.21.82-.61.89ZM83.04,62.6s-.02,0-.02,0c-.26,0-.53-.02-.83-.02-.67,0-1.43-.02-2.17-.02-.52,0-.99,0-1.43.01h-.02c-.4,0-.72-.34-.73-.76,0-.43.31-.78.71-.79.45,0,.93-.01,1.46-.01.75,0,1.51,0,2.19.02.3,0,.59,0,.86.02.4.02.72.37.7.8-.01.42-.34.75-.73.75ZM88.76,62.81c-.08.36-.38.6-.71.6-.05,0-.11,0-.17-.02-.21-.05-.41-.1-.6-.14-.39-.09-.64-.51-.55-.93.09-.42.48-.68.87-.59.19.05.4.1.61.15.39.1.64.51.54.93Z"/>
  <path class="cls-1" d="M17.44,65.72c4.26,11.29,12.58,20.81,23.31,26.35,11.38,5.88,24.93,7.03,37.13,3.12,7.04-2.26,13.49-6.14,18.84-11.24.85-.81-.44-2.1-1.29-1.29-9.39,8.95-22.15,13.65-35.09,12.92-11.49-.65-22.49-5.66-30.57-13.85-4.63-4.69-8.24-10.33-10.57-16.5-.41-1.09-2.17-.62-1.76.49h0Z"/>
  <g>
    <path class="cls-1" d="M97.94,26.29h-1.91c-1.3,0-2.37,1.07-2.37,2.37v7.23h-2.16c.61-2.61.76-5.14-.35-7.7-1.89-4.35-5.7-7.22-11-8.03,0,0-8.58-1.78-15.16,5.06-2.08,2.16-8.61,2.73-15.68,2.7-1.05,0-2.66-.08-4.04-.27-3.1-.43-5.79-.39-7.41-3.48-.19-.36-.45-.68-.72-.97-1.27-1.34-2.78-1.93-4.54-1.44-1.78.49-2.99,2.06-3.15,3.95v29.7c.04.08.06.15.08.23.02.06.04.12.06.17.13.38.38,1.09.67,1.45.54.67.81.92,1.46,1.34l.91.59-.04,1.13s0,.09,0,.13c.02.12.03.25.02.4-.02.29-.02-.34-.03-.05,0,.32,0,.64.02.96v.15c.02.86.41,1.3,1.15,1.3s1.15-.44,1.17-1.3c0-.38.01-.77.01-1.15,0-.56,0-.21,0-.78h0s0-.84,0-.84l.98-.55c1.41-.79,2.21-1.99,2.44-3.66.04-.32.06-.64.07-.96,0-.41-.02-.82,0-1.22,0-.03,0-.06,0-.08l-.04-2.97c.41-.93.99-1.78,1.88-2.45,1.04-.78,2.89-.82,4.15-.82,5.35,0,8.03-.18,13.37-.18.91,0,5.59-.23,9.2,2.14.01,0,.02,0,.03,0,2.19-.1,4.34-.76,5.06-3.08.35-1.11,2.13-.72,1.78.4-.79,2.52-2.71,3.79-5.03,4.27.7.79,1.31,1.73,1.75,2.89,7.52-1.6,17.48-1.35,17.48-1.35-.25-4.14,1.03-7.85,2.21-11.35h3.44v7.23c0,1.3,1.07,2.37,2.37,2.37h1.91c1.3,0,2.37-1.07,2.37-2.37v-18.75c0-1.3-1.07-2.37-2.37-2.37ZM80.97,39.6c-1.03,0-2-.29-2.83-.78-.83.49-1.8.78-2.83.78-3.1,0-5.61-2.52-5.61-5.62s2.51-5.62,5.61-5.62c1.04,0,2,.29,2.83.78.83-.49,1.8-.78,2.83-.78,2.84,0,5.17,2.11,5.55,4.85h-2.05c-.36-1.61-1.79-2.82-3.51-2.82-.42,0-.82.08-1.2.21.57.75.95,1.64,1.08,2.61h-2.05c-.12-.53-.35-1.01-.67-1.43-.47.61-.76,1.37-.76,2.21s.29,1.6.76,2.21c.34-.44.59-.97.69-1.54h2.04c-.12,1.02-.51,1.95-1.1,2.72.38.13.78.21,1.2.21,1.76,0,3.22-1.26,3.53-2.93h2.04c-.05.44-.17.85-.31,1.25-.46,1.26-1.35,2.31-2.5,2.97-.81.46-1.75.74-2.75.74Z"/>
    <path class="cls-1" d="M76.5,30.59c.65.23,1.22.65,1.64,1.18.42-.54.98-.95,1.64-1.18-.44-.59-1-1.08-1.64-1.46-.64.38-1.19.87-1.64,1.46Z"/>
    <path class="cls-1" d="M76.5,30.59c-.37-.13-.78-.21-1.2-.21-1.98,0-3.59,1.61-3.59,3.6s1.61,3.6,3.59,3.6c.42,0,.82-.08,1.2-.21-.71-.94-1.14-2.12-1.14-3.39s.43-2.45,1.14-3.39Z"/>
    <path class="cls-1" d="M79.77,37.37c-.65-.23-1.22-.65-1.64-1.18-.42.54-.98.95-1.64,1.18.45.59,1,1.08,1.64,1.46.64-.37,1.19-.87,1.64-1.46Z"/>
  </g>
</svg>