<?xml version="1.0" encoding="UTF-8"?>
<svg id="_喇뒨쏛_2" data-name="喇뒨쏛 2" xmlns="http://www.w3.org/2000/svg" viewBox="0 0 475.42 63.75">
  <defs>
    <style>
      .cls-1 {
        fill: #d61d18;
      }
    </style>
  </defs>
  <g id="_喇뒨쏛_23" data-name="喇뒨쏛 23">
    <g>
      <path class="cls-1" d="M201.96,29.07l1.52-8.15c.02-.13.06-.27.12-.42.45-1.24,1.83-2.26,3.09-2.26h61.2L271.36.02l-65.87-.02c-7.52,0-15.83,6.09-18.56,13.61-.29.79-.5,1.57-.65,2.32l-5.41,29.81-.35,1.86c-.13.76-.2,1.53-.2,2.32,0,7.52,6.09,13.61,13.61,13.61l65.88-.03,3.16-18.22h-61.2c-1.26,0-2.27-1.01-2.27-2.26,0-.05,0-.1.01-.16l2.45-13.79Z"/>
      <path class="cls-1" d="M290.65,29.07l1.52-8.15c.02-.13.06-.27.11-.42.45-1.24,1.84-2.26,3.09-2.26h61.2L360.05.02l-65.87-.02c-7.52,0-15.82,6.09-18.56,13.61-.29.79-.5,1.57-.65,2.32l-5.4,29.71-.37,1.96c-.13.76-.2,1.53-.2,2.32,0,7.52,6.09,13.61,13.61,13.61l65.89-.03,3.16-18.22h-61.21c-1.25,0-2.27-1.01-2.27-2.26,0-.06.01-.11.02-.17l2.45-13.78Z"/>
      <path class="cls-1" d="M116,20.5c.45-1.24,1.84-2.26,3.09-2.26h61.2L183.76.02l-65.87-.02c-7.52,0-15.83,6.09-18.56,13.61-.29.79-.5,1.57-.65,2.32l-5.58,30.71-.18.95c-.13.76-.2,1.53-.2,2.32,0,7.52,6.09,13.61,13.61,13.61l65.88-.03,3.16-18.22h-61.2c-1.26,0-2.27-1.01-2.27-2.26,0-.07.01-.14.02-.21l.8-4.5h52.41s2.49-13.61,2.49-13.61h-52.44s.7-3.78.7-3.78c.03-.13.07-.27.12-.42Z"/>
      <path class="cls-1" d="M77.32,0L29.33.02V0S11.2,0,11.2,0L0,63.53h18.13s7.99-45.28,7.99-45.28h43.36c1.26,0,2.27,1.01,2.27,2.26,0,.15-.02.28-.04.41l-1.44,8.15-6.06,34.45h18.15l8.38-47.59c.12-.76.19-1.53.19-2.32C90.93,6.1,84.84,0,77.32,0Z"/>
      <polygon class="cls-1" points="430.74 .22 426.97 21.61 381.39 21.61 385.17 .22 367.03 .22 355.84 63.75 373.96 63.74 378.24 39.47 423.83 39.46 419.55 63.75 437.67 63.74 448.88 .22 430.74 .22"/>
      <polygon class="cls-1" points="457.29 .22 475.42 .22 464.22 63.74 446.09 63.75 457.29 .22"/>
    </g>
  </g>
</svg>